<?xml version="1.0" standalone="no"?>
<!DOCTYPE svg PUBLIC "-//W3C//DTD SVG 20010904//EN"
 "http://www.w3.org/TR/2001/REC-SVG-20010904/DTD/svg10.dtd">
<svg version="1.0" xmlns="http://www.w3.org/2000/svg"
 width="300.000000pt" height="300.000000pt" viewBox="0 0 300.000000 300.000000"
 preserveAspectRatio="xMidYMid meet">
<metadata>
Created by potrace 1.14, written by Peter Selinger 2001-2017
</metadata>
<g transform="translate(0.000000,300.000000) scale(0.100000,-0.100000)"
fill="#000000" stroke="none">
<path d="M385 2611 c-71 -17 -94 -45 -114 -139 -8 -37 -11 -343 -11 -1018 0
-895 1 -968 17 -995 10 -16 23 -29 30 -29 7 0 13 -4 13 -10 0 -5 7 -10 15 -10
8 0 15 -4 15 -10 0 -7 313 -10 920 -10 l920 0 0 285 0 285 -45 0 -45 0 0 -120
0 -120 -740 0 -740 0 0 900 0 900 740 0 740 0 0 -455 0 -455 45 0 45 0 0 505
0 505 -887 -1 c-489 -1 -901 -4 -918 -8z m125 -230 l0 -188 -69 -6 c-38 -3
-84 -13 -101 -22 l-32 -16 4 158 c6 233 22 261 151 262 l47 1 0 -189z m57
-1214 c-1 -248 -2 -45 -2 453 0 498 1 701 2 452 2 -248 2 -656 0 -905z m-57
779 l0 -193 -69 -6 c-38 -3 -84 -13 -101 -22 l-32 -16 4 163 c6 239 21 266
151 267 l47 1 0 -194z m0 -410 l0 -163 -66 -6 c-39 -4 -81 -15 -101 -27 l-35
-20 4 137 c7 211 25 241 151 242 l47 1 0 -164z m0 -380 l0 -163 -69 -6 c-38
-3 -83 -13 -100 -22 l-31 -16 0 63 c1 81 15 192 32 243 15 45 50 63 126 64
l42 1 0 -164z m0 -326 l0 -110 -47 0 c-47 0 -100 -10 -137 -25 -18 -8 -19 -4
-14 66 8 109 25 151 68 166 19 7 56 12 83 12 l47 1 0 -110z m1590 -185 l0 -25
-832 -2 c-825 -3 -833 -3 -833 -23 0 -20 8 -20 833 -23 823 -2 832 -2 832 -22
0 -20 -9 -20 -832 -22 -825 -3 -833 -3 -833 -23 0 -20 8 -20 833 -23 824 -2
832 -2 832 -22 0 -20 -7 -20 -843 -20 -516 0 -855 4 -876 10 -54 15 -75 45
-75 105 0 58 21 90 70 105 16 4 410 9 877 9 l847 1 0 -25z"/>
<path d="M1479 1957 c-103 -29 -181 -97 -228 -197 -37 -80 -36 -191 2 -275 46
-98 116 -159 217 -189 68 -20 122 -20 190 0 62 18 92 35 140 80 l35 33 400
-296 c220 -162 406 -297 413 -300 8 -3 20 1 27 8 24 25 127 229 122 242 -2 6
-208 111 -456 232 -353 172 -450 223 -445 235 27 68 8 203 -41 279 -77 121
-242 186 -376 148z m175 -107 c97 -37 150 -117 150 -225 0 -101 -42 -172 -129
-218 -52 -28 -164 -30 -212 -4 -85 45 -143 135 -143 221 0 93 74 198 161 229
61 21 109 20 173 -3z"/>
</g>
</svg>
